<?xml version="1.0" encoding="UTF-8"?>
<svg id="Layer_1" data-name="Layer 1" xmlns="http://www.w3.org/2000/svg" viewBox="0 0 432.1 496.91">
  <defs>
    <style>
      .cls-1 {
        fill: #fbed23;
      }

      .cls-2 {
        fill: #745893;
      }

      .cls-3 {
        font-family: Delight-Regular, Delight;
        font-size: 13px;
        font-variation-settings: 'wght' 400;
      }

      .cls-3, .cls-4 {
        fill: #fff;
      }

      .cls-4 {
        font-family: Delight-ExtraBold, Delight;
        font-size: 25.51px;
        font-variation-settings: 'wght' 800;
        font-weight: 700;
      }
    </style>
  </defs>
  <rect class="cls-2" x="34.72" y="95.44" width="362.63" height="362.63" rx="181.32" ry="181.32"/>
  <text class="cls-4" transform="translate(80.4 238.16) rotate(-70.5)"><tspan x="0" y="0">D</tspan></text>
  <text class="cls-4" transform="translate(87.3 219.18) rotate(-62.32)"><tspan x="0" y="0">R</tspan></text>
  <text class="cls-4" transform="translate(96.37 202) rotate(-53.88)"><tspan x="0" y="0">O</tspan></text>
  <text class="cls-4" transform="translate(109.58 184.2) rotate(-44.93)"><tspan x="0" y="0">G</tspan></text>
  <text class="cls-4" transform="translate(125.21 168.9) rotate(-36.4)"><tspan x="0" y="0">A</tspan></text>
  <text class="cls-4" transform="translate(142.27 156.9) rotate(-30.71)"><tspan x="0" y="0"> </tspan></text>
  <text class="cls-4" transform="translate(148.3 153.11) rotate(-25.28)"><tspan x="0" y="0">P</tspan></text>
  <text class="cls-4" transform="translate(165.74 145.03) rotate(-17.29)"><tspan x="0" y="0">H</tspan></text>
  <text class="cls-4" transform="translate(184.7 139.3) rotate(-9.3)"><tspan x="0" y="0">Y</tspan></text>
  <text class="cls-4" transform="translate(203.02 136.42) rotate(-1.91)"><tspan x="0" y="0">S</tspan></text>
  <text class="cls-4" transform="translate(221.88 136.15) rotate(3.78)"><tspan x="0" y="0">I</tspan></text>
  <text class="cls-4" transform="translate(231.1 136.52) rotate(10.16)"><tspan x="0" y="0">O</tspan></text>
  <text class="cls-4" transform="translate(252.29 140.55) rotate(18.23)"><tspan x="0" y="0">T</tspan></text>
  <text class="cls-4" transform="translate(270.17 146.57) rotate(26.12)"><tspan x="0" y="0">H</tspan></text>
  <text class="cls-4" transform="translate(287.85 155.48) rotate(33.81)"><tspan x="0" y="0">E</tspan></text>
  <text class="cls-4" transform="translate(302.57 165.44) rotate(41.52)"><tspan x="0" y="0">R</tspan></text>
  <text class="cls-4" transform="translate(317.36 178.71) rotate(49.67)"><tspan x="0" y="0">A</tspan></text>
  <text class="cls-4" transform="translate(330.6 194.62) rotate(57.74)"><tspan x="0" y="0">P</tspan></text>
  <text class="cls-4" transform="translate(340.26 210.08) rotate(65.23)"><tspan x="0" y="0">Y</tspan></text>
  <text class="cls-4" transform="translate(348.07 227.98) rotate(70.69)"><tspan x="0" y="0"> </tspan></text>
  <text class="cls-4" transform="translate(350.66 234.59) rotate(76.59)"><tspan x="0" y="0">C</tspan></text>
  <text class="cls-4" transform="translate(355.37 255.72) rotate(84.47)"><tspan x="0" y="0">L</tspan></text>
  <text class="cls-4" transform="translate(356.73 272.9) rotate(89.84)"><tspan x="0" y="0">I</tspan></text>
  <text class="cls-4" transform="translate(356.94 282.14) rotate(95.89)"><tspan x="0" y="0">N</tspan></text>
  <text class="cls-4" transform="translate(354.39 302.69) rotate(101.96)"><tspan x="0" y="0">I</tspan></text>
  <text class="cls-4" transform="translate(352.68 311.79) rotate(108.25)"><tspan x="0" y="0">C</tspan></text>
  <text class="cls-3" transform="translate(55.48 277.27) rotate(88.21)"><tspan x="0" y="0">H</tspan></text>
  <text class="cls-3" transform="translate(56.19 291.57) rotate(83.32)"><tspan x="0" y="0">E</tspan></text>
  <text class="cls-3" transform="translate(57.91 304.44) rotate(78.54)"><tspan x="0" y="0">A</tspan></text>
  <text class="cls-3" transform="translate(60.93 318.06) rotate(73.88)"><tspan x="0" y="0">L</tspan></text>
  <text class="cls-3" transform="translate(64.65 330.03) rotate(70.24)"><tspan x="0" y="0">I</tspan></text>
  <text class="cls-3" transform="translate(67.44 337.58) rotate(66.18)"><tspan x="0" y="0">N</tspan></text>
  <text class="cls-3" transform="translate(73.64 350.99) rotate(60.78)"><tspan x="0" y="0">G</tspan></text>
  <text class="cls-3" transform="translate(81.31 364.03) rotate(56.62)"><tspan x="0" y="0"> </tspan></text>
  <text class="cls-3" transform="translate(85.78 370.66) rotate(52.63)"><tspan x="0" y="0">H</tspan></text>
  <text class="cls-3" transform="translate(94.68 381.88) rotate(47.54)"><tspan x="0" y="0">A</tspan></text>
  <text class="cls-3" transform="translate(104.33 392.08) rotate(42.41)"><tspan x="0" y="0">N</tspan></text>
  <text class="cls-3" transform="translate(115.4 401.84) rotate(37.21)"><tspan x="0" y="0">D</tspan></text>
  <text class="cls-3" transform="translate(126.94 410.28) rotate(32.32)"><tspan x="0" y="0">S</tspan></text>
  <text class="cls-3" transform="translate(138.32 417.16) rotate(28.54)"><tspan x="0" y="0"> </tspan></text>
  <text class="cls-3" transform="translate(145.41 420.97) rotate(24.03)"><tspan x="0" y="0">W</tspan></text>
  <text class="cls-3" transform="translate(161.37 427.65) rotate(19.51)"><tspan x="0" y="0">I</tspan></text>
  <text class="cls-3" transform="translate(168.98 430.25) rotate(15.71)"><tspan x="0" y="0">T</tspan></text>
  <text class="cls-3" transform="translate(181.89 433.65) rotate(10.75)"><tspan x="0" y="0">H</tspan></text>
  <text class="cls-3" transform="translate(195.9 436) rotate(6.76)"><tspan x="0" y="0"> </tspan></text>
  <text class="cls-3" transform="translate(203.87 436.87) rotate(2.64)"><tspan x="0" y="0">C</tspan></text>
  <text class="cls-3" transform="translate(218.27 437.29) rotate(-2.37)"><tspan x="0" y="0">A</tspan></text>
  <text class="cls-3" transform="translate(232.27 436.47) rotate(-7.41)"><tspan x="0" y="0">R</tspan></text>
  <text class="cls-3" transform="translate(246.18 434.36) rotate(-11.33)"><tspan x="0" y="0">I</tspan></text>
  <text class="cls-3" transform="translate(253.97 432.73) rotate(-15.27)"><tspan x="0" y="0">N</tspan></text>
  <text class="cls-3" transform="translate(268.16 428.6) rotate(-20.6)"><tspan x="0" y="0">G</tspan></text>
  <text class="cls-3" transform="translate(282.18 422.97) rotate(-24.74)"><tspan x="0" y="0"> </tspan></text>
  <text class="cls-3" transform="translate(289.44 419.54) rotate(-28.74)"><tspan x="0" y="0">H</tspan></text>
  <text class="cls-3" transform="translate(301.83 412.44) rotate(-33.65)"><tspan x="0" y="0">E</tspan></text>
  <text class="cls-3" transform="translate(312.55 405.04) rotate(-38.51)"><tspan x="0" y="0">A</tspan></text>
  <text class="cls-3" transform="translate(323.39 396.11) rotate(-43.56)"><tspan x="0" y="0">R</tspan></text>
  <text class="cls-3" transform="translate(333.29 386.35) rotate(-48.38)"><tspan x="0" y="0">T</tspan></text>
  <text class="cls-3" transform="translate(341.8 376.46) rotate(-53.03)"><tspan x="0" y="0">S</tspan></text>
  <circle class="cls-1" cx="63.27" cy="254.96" r="3.86"/>
  <circle class="cls-1" cx="351.89" cy="350.63" r="3.86"/>
  <g>
    <path class="cls-1" d="M182.15,388.42h0c-6.04-5.7-6.7-15.02-1.64-21.61,11.3-14.7,22.72-35.45,26.82-62.25,2.83-18.51.53-48.64-4.45-67.05l6.96,3.24c5.86,2.72,10.14,8.05,11.4,14.38,3.42,17.17,3.83,34.53,1.19,51.74-5.87,38.36-25.15,65.52-40.29,81.55Z"/>
    <path class="cls-1" d="M295.28,285.29c-1.32,17.58-26.73,36.55-67.97,50.76l-2.76.95.48-2.88c1.56-9.4,7.64-17.31,16.26-21.16,19.24-8.6,29.45-19.03,30.35-31,.8-10.58-11.36-27.83-47.89-44.55-23.11-10.58-45.44-18.85-60.1-23.93-6.65-2.3-11.04-8.82-10.68-15.86l.11-2.2,2.11.63c12.78,3.77,45.74,14,75.8,27.76,44.83,20.52,65.86,40.63,64.29,61.49Z"/>
    <ellipse class="cls-1" cx="217.15" cy="194.12" rx="12.9" ry="15.57" transform="translate(-61.87 277.69) rotate(-58.47)"/>
  </g>
</svg>