<svg xmlns="http://www.w3.org/2000/svg" id="Layer_1" data-name="Layer 1" viewBox="0 0 315.57 401.36" width="315.57" height="401.36"><metadata><rdf:RDF xmlns:rdf="http://www.w3.org/1999/02/22-rdf-syntax-ns#" xmlns:dc="http://purl.org/dc/elements/1.1/"><rdf:Description><dc:creator>RealFaviconGenerator</dc:creator><dc:source>https://realfavicongenerator.net</dc:source></rdf:Description></rdf:RDF></metadata><defs>
    <style>
      .cls-1 {
        fill: #745893;
      }
    </style>
  </defs><path class="cls-1" d="M109.83,346.96h0c-8.68-8.2-9.64-21.62-2.36-31.09,16.25-21.15,32.69-51.01,38.59-89.58,4.07-26.63.76-69.99-6.4-96.48l10.02,4.66c8.43,3.92,14.59,11.58,16.41,20.7,4.92,24.71,5.5,49.69,1.72,74.45-8.44,55.2-36.19,94.28-57.98,117.35Z"></path><path class="cls-1" d="M272.63,198.55c-1.9,25.3-38.47,52.6-97.81,73.04l-3.97,1.37.69-4.14c2.24-13.52,10.99-24.91,23.4-30.45,27.68-12.37,42.38-27.38,43.67-44.61,1.15-15.22-16.35-40.05-68.91-64.1-33.26-15.23-65.39-27.13-86.48-34.44-9.57-3.31-15.89-12.69-15.37-22.82l.16-3.17,3.04.9c18.39,5.42,65.82,20.15,109.07,39.94,64.51,29.53,94.77,58.47,92.51,88.48Z"></path><ellipse class="cls-1" cx="160.2" cy="67.37" rx="18.56" ry="22.4" transform="translate(19 168.69) rotate(-58.47)"></ellipse></svg>