<svg width="50" height="71" viewBox="0 0 50 71" fill="none" xmlns="http://www.w3.org/2000/svg">
<path d="M25 0C38.8071 0 50 11.1929 50 25C50 34.7752 44.3883 43.2375 36.2119 47.3477L25 70.2383L13.7871 47.3477C5.61114 43.2373 0 34.7749 0 25C0 11.1929 11.1929 0 25 0Z" fill="#FFF200"/>
<path d="M44 24C44 13.5066 35.4934 5 25 5C14.5066 5 6 13.5066 6 24C6 34.4934 14.5066 43 25 43C35.4934 43 44 34.4934 44 24Z" fill="#745893"/>
<path d="M21.0428 36.4852C20.347 35.8271 20.2694 34.752 20.8531 33.9933C22.1556 32.2978 23.4739 29.9044 23.9465 26.812C24.2734 24.6775 24.0073 21.2016 23.433 19.0785L24.2368 19.4516C24.9127 19.7659 25.4062 20.38 25.5519 21.1104C25.9469 23.0909 25.993 25.0935 25.6891 27.0782C25.0122 31.5035 22.7886 34.6356 21.0417 36.4852H21.0428Z" fill="#FFF200"/>
<path d="M34.0925 24.5884C33.9406 26.6161 31.0085 28.8051 26.2521 30.443L25.9336 30.553L25.9891 30.2208C26.1683 29.1373 26.8704 28.2235 27.8648 27.7803C30.0832 26.789 31.2621 25.586 31.3659 24.2038C31.4581 22.984 30.0549 20.993 25.8424 19.0659C23.1765 17.8451 20.6008 16.8915 18.9105 16.3047C18.1435 16.0396 17.6363 15.2872 17.6782 14.4751L17.6908 14.2215L17.9349 14.2938C19.4093 14.7287 23.2111 15.9086 26.6776 17.4951C31.849 19.8623 34.2748 22.1824 34.0936 24.5873L34.0925 24.5884Z" fill="#FFF200"/>
<path d="M26.611 15.0106C27.0404 14.3107 26.7031 13.3227 25.8576 12.8039C25.0121 12.2852 23.9785 12.4321 23.5491 13.1321C23.1196 13.8321 23.4569 14.8201 24.3024 15.3388C25.1479 15.8576 26.1815 15.7106 26.611 15.0106Z" fill="#FFF200"/>
</svg>
