<svg width="90" height="39" viewBox="0 0 90 39" fill="none" xmlns="http://www.w3.org/2000/svg">
<path fill-rule="evenodd" clip-rule="evenodd" d="M18.8559 0.773382C18.472 0.904368 17.8834 1.11851 17.5385 1.24394C13.8752 2.51864 9.51389 4.5842 6.48039 7.07977C6.08341 7.40245 5.76788 7.62426 5.56405 7.81263C5.45541 7.91362 5.44351 7.99729 5.28468 8.13909C5.2572 8.16387 5.19564 8.14927 4.91219 8.42053C4.16248 9.07145 2.75533 11.0661 2.40033 11.5816C1.48115 13.1758 0.925109 14.9898 0.919039 16.8332C0.906356 18.3588 1.26791 19.8811 1.90988 21.2675C1.92178 21.3527 1.93441 21.4384 1.94837 21.5241C2.29313 22.0888 3.61487 24.2427 4.51113 25.122C5.97654 26.7341 8.26487 28.3846 9.89741 29.3615C10.248 29.5755 10.5206 29.7802 10.8671 29.9773C11.0182 30.0631 11.2231 30.1224 11.3775 30.2069C13.1044 31.1677 15.5333 32.3068 17.4119 32.9977C21.6691 34.5766 25.8531 35.6158 30.402 36.3659C34.9084 37.0983 39.4581 37.4541 44.018 37.4882C54.9616 37.5098 66.0882 35.9703 76.0712 31.2404C76.2614 31.1472 76.2981 31.2254 76.4449 31.1526C77.3069 30.741 79.1466 29.6159 80.037 29.0092C80.7742 28.5359 81.9743 27.8002 82.1031 27.5063C79.5406 29.2971 76.7066 30.8644 73.7816 32.0543C73.5732 32.1389 73.5084 32.0786 73.4823 32.0881C72.9982 32.2593 73.3413 32.2398 72.6604 32.5192C72.436 32.6237 70.1861 33.1787 70.5421 33.3106C69.9813 33.4344 66.2931 34.5021 65.5743 34.6885C65.3598 34.7538 65.5349 34.7831 65.4936 34.7977C65.3099 34.8609 65.194 34.7883 65.0242 34.8281C64.5667 34.9391 63.4535 35.2777 63.2288 35.3246C62.7162 35.4409 61.1958 35.6708 60.5232 35.8086C59.9181 35.9352 60.054 36.0127 59.5237 36.1126C59.1045 36.189 59.5449 36.0337 58.5999 36.1599C58.1427 36.2242 56.5121 36.5137 56.1216 36.5584C55.7262 36.6081 55.2754 36.6036 54.7247 36.6687C53.9453 36.765 52.2211 36.9535 51.4207 37.0244C51.3726 37.0291 51.2616 37.1102 51.1426 37.1167C50.8964 37.13 50.9619 37.0349 50.775 37.0379C50.5889 37.0543 47.3783 37.2125 46.8303 37.2079C46.4535 37.2156 46.1917 37.2722 45.986 37.2743C45.8236 37.2757 45.8037 37.2028 45.6383 37.2034C45.5867 37.204 45.1493 37.2709 44.7096 37.2687C44.5736 37.2681 44.3135 37.2608 44.018 37.2496C43.4086 37.2272 42.6576 37.1845 42.5354 37.1809C42.4174 37.1778 42.5455 37.2319 42.1965 37.2214C41.8793 37.2113 41.6702 37.1387 41.4875 37.1314C41.0638 37.1147 40.589 37.151 40.1428 37.1291C38.86 37.063 38.9244 36.9798 38.849 36.9738C38.6355 36.9531 38.5443 37.0198 38.474 37.0165C38.1762 37.0034 37.457 36.9633 37.1876 36.9434C36.857 36.9196 36.723 36.8398 36.3744 36.8083C36.1126 36.7848 35.5911 36.8028 34.9912 36.7419C33.6525 36.6082 32.0683 36.4114 30.7646 36.2015C30.3755 36.1391 30.3275 36.0693 30.2096 36.0484C29.5905 35.938 29.2327 35.9407 29.0524 35.9077C27.7809 35.6806 25.5768 35.1086 24.4185 34.8078C23.9555 34.6978 21.8867 34.2017 20.747 33.833C20.6174 33.7922 20.7534 33.7878 20.6066 33.7496C20.2563 33.658 20.2601 33.7523 20.0827 33.6934C19.9974 33.6644 19.8197 33.5541 19.5748 33.4682C18.3164 33.0262 17.4232 32.7299 16.8618 32.5102C11.43 30.3618 5.98743 27.2728 3.01991 22.6915C2.69937 22.1856 2.28199 21.5537 1.98437 20.7012C1.99716 20.6674 2.01103 20.6334 2.02411 20.5999C1.9896 20.5783 1.95413 20.5566 1.91981 20.5346C1.55765 19.5841 1.42276 19.2063 1.29774 18.1739C1.28782 18.0837 1.36746 17.804 1.21952 17.646C1.24378 16.9376 1.2374 16.9835 1.20834 16.8332C1.19765 16.7645 1.18548 16.6545 1.19469 16.4144C1.22573 15.6504 1.38609 14.9136 1.59698 14.2057C1.73538 13.8258 1.43705 15.4871 1.45916 15.5994C1.43445 15.7739 1.34891 15.9504 1.33127 16.1206C1.31786 16.2485 1.31148 16.3759 1.30892 16.4966V17.0842C1.30647 17.1523 1.30045 17.2032 1.28657 17.2317C1.38147 17.8825 1.30977 17.071 1.37348 17.1506C1.36113 17.5859 1.37879 18.0218 1.42563 18.4576C1.58302 18.6643 2.07278 21.0148 2.20539 20.8014C2.25301 20.9914 2.30195 21.1735 2.35811 21.3598C2.91581 22.0452 3.035 22.5302 3.65191 23.4807C3.62394 23.4014 3.5974 23.322 3.5712 23.2431C3.58548 23.2591 4.2365 24.0373 3.92632 23.8094C4.68145 24.5205 4.48376 24.6357 5.24743 25.194C5.65362 25.5669 5.34076 25.413 6.05947 26.0766C6.49991 26.4755 7.08355 26.896 7.6165 27.2969C7.73651 27.3875 7.74918 27.4681 7.85614 27.548C7.96336 27.6275 8.05384 27.6238 8.18642 27.7179C8.45924 27.9121 8.80112 28.1949 8.97362 28.3056C9.13129 28.4072 9.38504 28.5165 9.77821 28.7547C11.142 29.559 10.7033 29.3613 10.9031 29.5112C11.1274 29.6694 11.3466 29.685 11.812 29.9492C11.859 29.9757 11.7032 29.9603 11.8592 30.0415C11.9859 30.1067 12.0815 30.0869 12.5098 30.2936C12.6609 30.3931 15.3053 31.6087 15.7282 31.756C16.3496 32.0182 17.7418 32.612 18.4151 32.8434C18.6775 32.9359 18.9633 32.9765 19.2371 33.0686C20.1444 33.3777 21.6136 33.8338 22.7808 34.1493C23.8394 34.4455 25.6846 35.0082 26.2946 35.0172C27.8085 35.3247 28.152 35.4788 28.2664 35.5047C28.5743 35.5664 28.7316 35.528 29.1244 35.5947C33.5773 36.3749 39.3626 36.9028 44.018 36.913C44.6489 36.9174 45.2562 36.9145 45.8333 36.9062C57.0788 36.6646 68.7168 34.8175 78.552 29.079C78.5531 29.0299 78.5536 28.9804 78.5545 28.9315C77.4101 29.6116 75.9772 30.2946 74.7885 30.834C73.2024 31.5778 70.8254 32.6584 69.4941 32.8187C69.9862 32.6295 70.8221 32.4342 70.7507 32.3143C69.8784 32.6241 68.9894 32.9147 68.0961 33.1834C68.1449 33.2328 68.1936 33.2827 68.2426 33.332C67.3153 33.6406 66.3447 33.9029 65.4066 34.1572C65.2428 34.2014 65.3762 34.2244 65.2328 34.2619C65.0722 34.3034 65.1637 34.2219 65.1335 34.2292C64.7271 34.3329 64.6186 34.4167 64.5685 34.4285C64.4402 34.4576 64.5217 34.3829 64.1501 34.4577C63.4663 34.5942 63.0088 34.8385 63.1071 34.5759C62.8863 34.626 62.6645 34.6762 62.4416 34.7245C62.3999 34.7987 62.3593 34.8726 62.3186 34.9463C60.9003 34.9849 60.358 35.5319 59.5262 35.3223C59.2875 35.4186 59.047 35.5143 58.8048 35.6082C58.649 35.5709 58.4951 35.5318 58.3429 35.4934C58.326 35.5499 58.309 35.6069 58.292 35.6634C56.9336 35.8395 55.4943 36.0918 54.1871 36.2251C53.2818 36.3162 53.0531 36.3168 52.2501 36.3906C50.4599 36.5422 52.2304 36.3045 50.7278 36.3062C50.8111 36.3626 50.8951 36.4187 50.9787 36.4751C50.7333 36.5153 50.4837 36.5544 50.2411 36.5921C50.0657 36.5524 49.89 36.5132 49.7147 36.4728C48.972 36.7757 48.4572 36.5854 48.3526 36.5899C48.2688 36.5934 47.99 36.7635 47.0786 36.6586C47.4633 36.8599 46.3862 36.6774 46.3001 36.6766C46.2137 36.6789 45.1858 36.741 44.763 36.7385C44.5895 36.7382 44.3133 36.7255 44.018 36.7126C43.7474 36.7008 43.4619 36.6888 43.2258 36.6867C42.7899 36.6826 42.833 36.7517 42.8011 36.752C42.2656 36.7473 42.6013 36.7003 42.2151 36.6889C41.8312 36.6772 41.525 36.7262 41.4415 36.7182C41.4017 36.7134 41.5416 36.6541 41.3497 36.6417C40.8293 36.6086 39.9021 36.6246 39.3059 36.5888C39.0953 36.5766 38.8336 36.5083 38.6006 36.4919C38.2439 36.4671 38.072 36.5255 37.8656 36.5088C37.7947 36.5026 37.3403 36.3609 36.7655 36.3298C36.6564 36.3249 36.3113 36.5248 35.9236 36.1632C35.8863 36.2055 35.8493 36.2483 35.8119 36.2904C33.8739 36.2129 33.4053 35.7752 32.5029 35.9842C31.1262 35.7583 32.0957 35.7662 31.9466 35.7264C31.85 35.7012 31.4015 35.6712 31.3482 35.6612C31.2607 35.6444 31.282 35.6077 31.1855 35.5936C29.4237 35.3291 30.1934 35.5206 29.6297 35.4765C28.2807 35.3549 27.3058 34.9242 29.5887 35.4067C29.5931 35.3852 29.5968 35.363 29.6012 35.3414C29.0264 35.2693 27.6042 34.9889 28.1037 34.9711C28.4938 34.9745 31.8786 35.5769 29.9811 35.1467C29.5557 35.0483 29.3054 35.0904 28.5855 34.8045C28.09 34.7053 27.9813 34.8871 27.3227 34.6761C27.4176 34.7652 27.5132 34.8551 27.6083 34.9441C26.6567 34.8498 25.5704 34.4878 24.8543 34.3564C24.6117 34.3149 23.6725 34.4104 23.9616 34.1527C23.5466 34.0767 21.7111 33.5157 21.3541 33.4322C21.2681 33.4126 21.1044 33.5481 19.9324 33.1147C19.8569 33.0686 19.7814 33.0225 19.7065 32.9763C20.8167 33.2718 18.92 32.5915 19.4991 32.6149C19.6445 32.7388 20.4979 33.0557 20.6215 33.1294C20.8362 33.2594 20.1053 33.1191 21.0102 33.3725C21.6655 33.2942 20.0109 32.9184 20.3434 32.7567C19.1199 32.4912 19.0593 32.342 18.7951 32.249C17.6724 31.84 16.9638 31.5993 15.9467 31.1537C15.6658 31.0995 17.5292 31.917 17.7707 31.971C16.8328 31.8131 18.3185 32.3792 19.0062 32.4933C19.0385 32.5619 19.0714 32.6306 19.1042 32.6993C18.2796 32.3891 17.4875 32.0854 16.6507 31.8044C16.6064 31.7654 16.5619 31.7263 16.5179 31.6873C16.7126 31.7319 16.9085 31.7763 17.1052 31.819C16.4491 31.5116 16.7813 31.8122 15.9554 31.3304C15.9014 31.3732 15.847 31.4162 15.7928 31.4588C14.9416 31.0843 14.1172 30.6927 13.2958 30.27C12.8093 30.1772 11.2614 29.294 11.637 29.3221C11.0224 28.9677 11.7462 29.4655 11.1391 29.1656C10.874 29.0344 10.3874 28.7494 10.2947 28.6444C10.4281 28.5615 11.1611 28.9741 11.4457 29.017C11.2854 28.9591 7.96566 26.9098 8.39005 26.9502C8.1578 26.7533 8.21395 26.9054 7.75308 26.5776C6.45169 25.6772 4.90041 23.8758 4.03558 22.9684C4.81297 24.195 5.22648 24.4294 6.0334 25.2177C6.47122 25.7923 10.0993 28.3633 9.20457 27.8924C9.35093 27.9676 9.49879 28.0418 9.64784 28.1153C9.7593 28.2405 9.87356 28.3662 9.9893 28.4913C9.58087 28.2438 9.19419 27.9978 8.80104 27.7337C8.73678 27.6354 8.67421 27.5368 8.6123 27.4388C8.54965 27.4332 8.48614 27.4279 8.42357 27.4219C8.25979 27.312 8.09827 27.2004 7.93933 27.0887C8.00828 27.0932 8.07767 27.0981 8.14669 27.1022C7.91588 26.9231 7.67089 26.7266 7.44267 26.5359C7.4706 26.6226 7.4988 26.7098 7.52834 26.7971C6.41784 25.9166 6.80876 26.1848 6.2929 25.6038C5.87556 25.1997 6.51825 25.9499 5.60503 25.1017C4.59935 24.0823 5.31423 24.6969 4.13243 23.287C4.09558 23.279 4.05874 23.2705 4.02192 23.2623C3.79959 22.9236 3.59374 22.5798 3.40234 22.2243C3.40304 22.2835 3.4044 22.3437 3.40606 22.4033C2.9578 21.705 2.42587 20.6757 2.44875 20.3792C2.71541 21.1772 2.92489 21.0753 2.86595 20.8723C2.80246 20.6489 1.95101 18.8083 1.97692 16.8332C1.94464 15.1294 2.55329 13.4981 2.80014 12.9674C3.47027 11.492 4.26557 10.5112 5.2077 9.34251C4.34373 9.98765 2.51124 13.0737 2.37425 13.7453C2.34937 13.8054 2.1758 13.7418 2.24512 14.2001C1.99271 14.9729 1.84546 15.8758 1.85648 16.8332C1.86312 17.4905 1.94286 18.165 2.09116 18.8437C2.02648 18.8029 1.96145 18.7614 1.89746 18.7188C1.80759 17.8175 1.63655 16.9792 1.71742 16.8332C1.73086 16.8094 1.75219 16.8056 1.78199 16.8253C1.78282 16.6151 1.7904 16.4057 1.80558 16.1971C1.77041 16.1951 1.73521 16.1924 1.70004 16.1904C1.72351 15.873 1.76318 15.5558 1.81924 15.2414C1.85395 15.2463 1.88882 15.251 1.92353 15.256C1.96925 14.998 2.02559 14.7414 2.0924 14.4883C2.06564 14.4548 2.03928 14.4209 2.01293 14.3869C2.19901 13.6111 3.32891 11.1295 2.94665 12.2706C3.12271 11.9357 3.30889 11.6186 3.51409 11.3013C3.49222 11.2911 3.47016 11.2811 3.44828 11.2709C3.53333 11.1337 3.62472 10.9922 3.71275 10.8611C3.70094 10.9152 3.69107 10.9679 3.67923 11.0232C4.06029 10.3957 4.60802 9.90819 4.8737 9.50236C4.64356 9.73747 4.42906 9.96739 4.2119 10.2172C4.60865 9.74268 5.35033 8.86629 5.42623 8.79877C5.64666 8.57643 5.80504 8.48518 6.0545 8.25504C6.27876 8.05029 6.22396 8.05506 6.26683 8.01751C7.55952 6.94248 7.19709 7.50874 7.6612 6.8625C7.7479 6.8331 7.83488 6.80353 7.92195 6.7747C7.99621 6.68835 8.06512 6.6081 8.13799 6.52478C8.53132 6.24013 8.95727 5.94901 9.3635 5.68723C9.20283 5.74952 9.04839 5.80885 8.88423 5.87636C9.48862 5.45181 9.83356 5.3293 9.89617 5.29097C10.0734 5.18596 10.1283 5.10028 10.183 5.06695C12.8302 3.55239 11.2368 4.50614 12.6713 3.92545C13.1274 3.62639 12.6009 3.82054 12.4962 3.80275C13.165 3.50027 13.346 3.39324 14.052 3.07214C14.2386 2.98811 14.4431 2.93348 14.5586 2.88302C14.6573 2.83958 14.9516 2.67244 15.1943 2.57006C15.6033 2.39676 16.1393 2.19967 16.7004 1.98355C17.0619 1.84039 17.9887 1.48759 18.8559 1.18765V1.83608C16.8909 2.53746 13.4172 3.94944 12.449 4.54911C9.85771 5.90153 7.30969 7.65836 5.4163 9.76241C5.30473 9.88667 5.25308 9.88096 5.15928 9.98868C5.01547 10.151 4.71041 10.6014 4.58439 10.7733C4.10548 11.3952 3.61788 12.2173 3.43462 12.5925C3.0202 13.4182 2.78722 14.0131 2.61141 14.683C2.54638 14.8916 2.39855 15.973 2.38419 16.7172C2.37982 16.7557 2.37563 16.7945 2.37177 16.8332C2.36212 16.9299 2.35466 17.0267 2.34818 17.1236C2.34223 17.0482 2.33582 16.9485 2.3308 16.8332C2.30312 16.3601 2.34778 15.6321 2.41771 15.2571C2.54007 14.563 2.70007 14.2223 2.77903 13.9727C2.83215 13.7645 3.21674 12.7085 3.48181 12.2559C3.55963 12.1132 3.61894 12.1056 3.68668 11.988C4.04797 11.3499 4.62707 10.5523 5.01773 10.0292C4.96867 10.0984 6.0158 8.97878 6.09424 8.92823C6.2026 8.82126 6.29488 8.67231 6.52012 8.4633C6.96305 8.06093 6.97303 8.1611 7.48861 7.62013C7.65022 7.51968 7.81452 7.42021 7.9803 7.3218C7.90959 7.20615 9.926 5.94221 10.4611 5.49473C10.427 5.4562 7.84531 7.16756 7.66368 7.37021C6.43442 8.30181 4.87088 9.92545 4.05917 11.1223C3.78563 11.47 3.05956 12.6262 3.03109 12.7299C2.96288 12.8789 3.06661 12.7618 3.03854 12.8255C2.49644 14.1713 2.70798 13.482 2.6052 13.6518C2.54 13.7674 2.43282 14.2739 2.42144 14.3262C2.394 14.4226 2.37635 14.3905 2.36929 14.3903C2.20873 15.0282 2.4346 14.4574 2.34197 14.9307C2.31278 15.0105 2.0939 16.1237 2.10606 16.5878C2.10441 16.6696 2.10445 16.7518 2.10482 16.8332C2.10524 17.4576 2.1801 18.0332 2.22029 18.2651C2.28908 18.7087 2.54677 19.5092 2.82497 20.1901C2.93856 20.4716 2.93462 20.5919 3.06461 20.8678C3.80822 22.7462 6.69246 25.6167 8.21001 26.6823C8.56137 26.9567 8.87444 27.2606 9.08041 27.3949C9.25774 27.4856 9.4288 27.5699 9.60314 27.6538C9.94567 28.1517 10.2571 28.1068 10.8026 28.4069C11.1553 28.5995 11.284 28.7489 11.3315 28.7761C11.65 28.9548 11.8227 29.0113 12.0728 29.1397C12.3534 29.2844 12.7471 29.5226 12.8538 29.5698C12.9187 29.5945 12.7669 29.4296 13.8732 29.9627C15.0177 30.5051 16.1549 30.9935 17.3721 31.4565C17.0863 31.04 16.6573 31.0863 16.169 30.8993C16.0388 30.8493 16.1404 30.842 16.0274 30.798C15.7036 30.6725 15.069 30.449 14.8168 30.324C14.5418 30.1884 14.6943 30.1431 14.3152 30.0122C14.2963 30.0058 14.3309 30.0695 14.2432 30.037C13.3673 29.7049 13.1347 29.5138 12.11 28.9686C11.3732 28.6784 7.51604 26.1276 7.47619 25.9336C6.88998 25.3702 10.8039 28.2066 11.3601 28.4114C11.5317 28.5138 11.3223 28.4487 11.4768 28.5465C11.548 28.591 12.1978 28.8543 12.8178 29.1611C13.5627 29.5414 15.0564 30.2938 15.8089 30.5965C22.2087 33.2081 29.0448 34.6245 36.0329 35.2424C36.1815 35.255 36.3835 35.2087 36.8698 35.2458C39.2259 35.4245 41.6148 35.5138 44.018 35.5114C50.8544 35.5023 57.8108 34.7651 64.3475 33.0494C66.2679 32.5437 68.1244 31.8973 70.0144 31.2618C70.2214 31.1234 70.4228 30.9851 70.6315 30.8419C70.0664 31.1139 68.9332 31.3785 68.8249 31.4115C68.7879 31.4237 68.5911 31.5609 68.2252 31.6794C67.7103 31.8458 67.4594 31.866 67.4169 31.8798C67.2842 31.9217 67.3914 31.9492 67.2641 31.989C66.3349 32.2774 65.5914 32.5087 64.725 32.7421C63.7277 33.0073 63.2027 33.0243 62.5024 33.3084C62.4073 33.2836 62.3118 33.2579 62.2168 33.2329C61.7376 33.5636 58.4398 34.199 57.1037 34.3744C56.6796 34.4365 56.7394 34.3486 56.5971 34.3699C56.5056 34.3824 56.5588 34.4825 55.4498 34.6142C54.8892 34.6787 54.7297 34.6242 54.4478 34.6615C54.2956 34.6816 54.3307 34.7494 54.1126 34.7752C52.8474 34.923 51.8067 35 50.554 35.0836C50.2003 35.1067 50.1941 35.0481 50.1157 35.0544C49.8286 35.0775 49.3349 35.2117 48.5947 35.2514C47.4051 35.3229 45.0482 35.3848 44.018 35.3381C44 35.3374 43.9817 35.3365 43.9646 35.3358C43.8181 35.3293 43.6971 35.2628 43.5896 35.2638C43.4272 35.2655 43.3626 35.334 43.3338 35.3347C42.7898 35.3333 43.1172 35.2712 42.754 35.284C42.5581 35.2906 42.3512 35.368 41.8972 35.3685C41.2921 35.3677 41.4141 35.2765 41.1622 35.2795C41.1356 35.2803 41.124 35.3444 40.8766 35.3392C39.9435 35.3208 38.573 35.2697 37.6955 35.2097C37.4399 35.1927 37.2531 35.1365 36.8983 35.1095C36.1883 35.0822 32.1275 34.6707 31.8125 34.5793C31.7789 34.572 32.1493 34.5314 31.5816 34.4566C31.4086 34.4703 31.2352 34.4836 31.0626 34.496C30.7955 34.3971 30.5299 34.2971 30.2667 34.1966C30.2416 34.4038 28.6069 34.1622 28.6687 33.9602C28.494 33.9209 28.3193 33.8811 28.146 33.8408C27.753 33.9121 27.5103 33.8144 26.7839 33.7519C26.6842 33.6875 26.5846 33.6227 26.4859 33.5583C26.4512 33.5803 26.4163 33.6027 26.3816 33.6247C26.0504 33.3979 25.3864 33.4105 25.3113 33.3939C25.0219 33.3321 24.8172 33.244 24.683 33.2138C24.1897 33.1045 23.0729 32.8777 22.5113 32.6971C22.4844 32.6883 22.5329 32.6354 22.3685 32.5823C22.0736 32.4862 22.012 32.5665 21.6534 32.3492C21.5645 32.3525 21.4751 32.3565 21.3864 32.3594C21.3071 32.3213 21.228 32.2827 21.1493 32.2445C20.6587 32.1071 20.1447 31.9553 19.6543 31.8032C20.1411 31.8472 19.6478 31.628 19.1353 31.5443C18.9588 31.5149 19.0802 31.6248 19.0211 31.6152C18.9227 31.6082 16.7734 30.7894 16.6483 30.682C16.538 30.6602 16.4276 30.637 16.318 30.6145C16.2851 30.5581 16.2523 30.5018 16.2199 30.4456C16.1585 30.4358 16.0969 30.4261 16.0336 30.4152C15.499 30.1287 14.0128 29.635 13.7652 29.4944C13.6337 29.4226 13.8401 29.3409 13.1903 29.0384C13.1436 29.0664 13.0967 29.0939 13.05 29.1217C12.8981 29.0526 12.7473 28.9827 12.598 28.9123C12.3251 28.7663 11.9828 28.4899 11.9995 28.4373C11.8962 28.4176 11.7931 28.3981 11.6904 28.3776C11.5183 28.1685 10.3228 27.5074 9.83036 27.253C9.71746 27.1417 9.60587 27.0295 9.49139 26.9142C9.28824 26.8223 9.08729 26.7291 8.88919 26.6339C8.48265 26.3545 8.94457 26.6114 8.86312 26.546C8.69155 26.4194 7.71418 25.7953 7.8698 25.7456C7.75039 25.6493 7.63703 25.556 7.51717 25.4552C7.42895 25.4302 7.34039 25.4046 7.2527 25.3787C7.14645 25.1135 6.76702 24.8605 6.15135 24.173C6.07457 24.1368 5.99768 24.0997 5.92165 24.0627C5.76166 23.8346 5.59892 23.5934 5.4523 23.3591C5.37486 23.3436 5.29737 23.3272 5.22012 23.3107C5.13584 23.221 5.05466 23.1326 4.97054 23.0382C4.9039 22.7833 4.53909 22.4892 4.45278 22.2829C4.32627 21.9773 4.52751 22.1583 4.90101 22.6319C4.91493 22.5642 3.90256 21.1002 3.75249 20.7203C3.75006 20.7499 3.74718 20.7796 3.74504 20.8093C3.94429 21.1776 4.16445 21.5334 4.40559 21.881C4.4219 22.2725 3.83919 21.2824 3.59728 20.8138C3.57534 20.7714 3.37815 20.5588 3.18753 20.064C3.10608 19.8749 2.96722 19.0978 2.94417 18.9518C2.73541 17.7751 2.73314 18.6557 2.72067 17.4838C2.66139 17.6738 2.64842 17.3238 2.65487 16.8332C2.65695 16.6829 2.66115 16.5199 2.6648 16.3559C2.6511 16.2366 2.69794 15.22 2.7244 15.1513C2.80112 14.7266 2.77991 15.1993 2.90444 14.5907C2.90103 14.5134 2.8994 14.4357 2.89823 14.3577C2.93889 14.2173 2.98419 14.0751 3.03109 13.9378C3.52147 13.1612 3.49411 12.9386 3.6159 12.6409C3.66847 12.5226 3.63693 12.6905 3.78477 12.3888C3.84298 12.2739 3.86787 12.1344 4.04303 11.8394C4.61551 10.9177 4.98913 10.728 5.497 9.86034C5.62145 9.75878 5.74936 9.65578 5.87322 9.5609C5.91949 9.46609 5.96787 9.37109 6.01726 9.27609C6.65534 8.75806 6.38754 8.90429 6.59586 8.70421C7.1447 8.16566 8.42513 7.17596 8.58996 7.15182C9.01955 6.62777 9.82485 6.3029 10.0414 6.15554C10.1636 6.05323 10.2879 5.9508 10.4139 5.84934C10.5876 5.76234 10.7589 5.67845 10.9292 5.59717C10.7613 5.52054 11.6914 5.14305 11.7798 5.0996C11.8682 5.04368 13.1902 4.28227 13.6956 4.04591C14.2039 3.79406 15.1235 3.41882 15.2042 3.3851C15.2939 3.34365 16.1694 2.92096 16.8742 2.64436C17.1358 2.52185 17.9907 2.22585 18.8559 1.93177V2.36518C16.6716 3.14668 14.5569 4.05517 12.6439 5.08946C12.458 5.18996 12.4639 5.14393 12.331 5.21667C11.6099 5.59659 9.88189 6.70269 9.00094 7.37471C8.72263 7.57993 8.55725 7.6607 8.46827 7.7282C8.16671 7.95963 8.2742 7.94204 8.13924 8.05016C7.92276 8.21029 6.8182 9.13074 6.48039 9.49223C6.30813 9.66548 6.15704 9.89192 5.95641 10.099C5.93951 10.1162 5.93217 10.0559 5.91792 10.0709C5.57693 10.4546 5.81165 10.2451 5.69815 10.3748C4.89753 11.3034 4.18569 12.3866 3.70654 13.5561C3.58441 13.8464 3.40198 14.287 3.33032 14.5457C3.30352 14.6436 3.38335 14.4766 3.29556 14.8147C3.26698 14.9303 3.20955 14.9607 3.17884 15.0928C3.05479 15.6665 3.19627 15.8718 3.03729 16.357C3.03175 16.501 3.03033 16.6615 3.03481 16.8332C3.03818 17.8056 3.37439 19.0905 3.66557 19.786C3.74218 19.9806 3.75355 20.0851 3.83692 20.2701C3.89645 20.402 4.04763 20.6089 4.15354 20.807C4.25921 21.006 4.38958 21.3349 4.63033 21.702C4.88467 22.0957 5.25438 22.5327 5.32441 22.6195C5.40363 22.7197 5.39432 22.8003 5.4759 22.8987C5.71296 23.1979 6.47373 23.9361 6.85661 24.2788C7.26168 24.6533 7.48965 24.882 7.63637 25.0072C7.77129 25.1212 7.96829 25.219 8.02873 25.2672C8.12511 25.3442 8.10655 25.4044 8.23112 25.5025C8.43445 25.6615 8.67826 25.8037 8.99473 26.0327C14.8262 30.1426 22.0617 32.2605 29.2125 33.5369C30.0252 33.6757 30.4722 33.6998 31.6685 33.8847C32.1493 33.9574 31.9342 33.9998 32.3117 34.0345C32.48 34.0494 32.447 33.9899 32.6593 34.0131C33.6038 34.1173 34.6874 34.2764 35.0992 34.3125C35.2613 34.327 35.4564 34.2802 35.7883 34.3069C38.2656 34.5097 41.2084 34.6437 43.8851 34.6075C43.9286 34.6069 43.9731 34.6059 44.018 34.6052C45.4421 34.5883 47.4945 34.4836 49.0678 34.3722C53.5349 34.077 58.3184 33.3866 62.2392 32.4382C68.1408 31.0123 73.8745 28.8229 78.4551 25.5408C76.2374 26.9771 72.9731 28.7182 70.0641 29.8152C62.2179 32.8288 52.9741 34.3306 44.018 34.4285C43.4358 34.4349 42.8573 34.4359 42.2834 34.4307C38.9804 34.4114 34.8102 34.1458 31.2426 33.6056C31.0804 33.5817 30.7354 33.5817 30.3884 33.5245C30.3153 33.5134 29.4111 33.2846 29.102 33.2307C29.3603 33.4317 28.1859 33.0927 27.8119 33.0247C27.3342 32.9416 26.3495 32.831 25.2628 32.544C24.2915 32.2846 24.579 32.2879 24.5265 32.2727C24.1856 32.1685 24.0341 32.2268 23.7654 32.1702C22.6439 32.0018 17.1946 30.242 15.7828 29.5495C15.4083 29.3908 15.4253 29.3367 15.342 29.3007C15.1242 29.2063 14.7771 29.1127 14.4245 28.9495C13.7937 28.6595 13.1 28.2528 12.7669 28.077C11.9546 27.6619 10.4365 26.8484 9.48767 26.1757C9.22129 25.9896 9.2755 25.9595 9.15739 25.8751C8.61642 25.5041 7.28811 24.5019 6.74114 23.9377C5.83736 23.0501 5.05967 22.0376 4.44533 20.9849C4.42879 20.9074 4.41376 20.8298 4.39938 20.753C4.31922 20.6564 4.24083 20.5589 4.16471 20.4603C3.61176 19.3128 3.27296 18.0826 3.24465 16.8332C3.22608 16.0822 3.31642 15.333 3.51285 14.6076C3.55375 14.3788 3.99717 13.3056 4.09518 13.1374C4.16269 12.9917 4.18215 12.827 4.30378 12.6139C4.47855 12.3173 4.40883 12.6405 4.66137 12.149C4.73256 12.0169 4.61646 12.1212 4.76691 11.8563C4.78767 11.7471 5.96899 10.1708 6.0781 10.1024C6.20527 9.96649 6.37979 9.90611 6.41334 9.87273C6.58476 9.70358 6.5263 9.66887 6.6356 9.54739C6.96326 9.18221 7.45951 8.7875 7.52089 8.73236C8.20884 8.07131 9.6547 6.91997 10.5493 6.39194C10.6733 6.31645 10.6872 6.36174 10.7095 6.34917C10.8523 6.26838 10.9121 6.17082 11.041 6.08912C11.7391 5.64155 12.918 5.02057 13.6882 4.64367C13.7753 4.60025 13.9475 4.48647 14.1066 4.41064C15.011 3.9855 14.7455 4.16004 14.7945 4.13709C14.9178 4.08335 15.1083 3.94787 15.4339 3.79824C16.2762 3.40304 17.9048 2.75049 18.8559 2.41584V3.39861C17.8615 3.7853 17.0479 4.10572 17.0704 4.02677C16.423 4.45262 16.4375 4.34497 16.1417 4.48044C15.8119 4.63456 15.9951 4.57923 15.7344 4.69996C15.1369 4.97853 14.5386 5.26435 13.9663 5.56903C14.0449 5.50174 14.1244 5.43447 14.2047 5.36752C13.5922 5.68301 13.8183 5.61808 13.2089 5.96867C12.106 6.6247 12.5493 6.32693 12.3509 6.37168C12.4188 6.38943 11.142 7.18361 11.0149 7.27227C10.9392 7.31996 11.2103 7.03272 10.4822 7.57059C10.5375 7.5607 10.5932 7.55105 10.6486 7.54132C10.2783 7.75212 9.42951 8.455 9.27659 8.577C9.20686 8.62869 8.70819 8.77848 8.51297 9.16689C8.45708 9.18331 8.40108 9.19975 8.34535 9.21642C8.01977 9.55138 7.72341 9.88342 7.43398 10.2341C7.34884 10.2569 7.26314 10.2803 7.1782 10.3039C7.0811 10.409 6.98842 10.5121 6.89386 10.6202C6.99082 10.5726 7.08394 10.5303 7.17944 10.4863C6.56403 11.1233 6.03846 12.0006 5.82604 12.0713C5.75284 12.2324 5.68012 12.4012 5.6162 12.5644C5.51492 12.6405 5.41452 12.7179 5.31572 12.7963C4.95005 13.5225 4.99218 13.5456 4.84762 14.0639C4.81715 14.032 4.78703 13.9993 4.75698 13.967C4.6644 14.356 4.51891 15.0477 4.45402 15.587C4.41603 15.8422 4.33126 16.2768 4.33606 16.3401C4.33726 16.3795 4.42082 16.6365 4.44657 16.8332C4.46083 16.949 4.45223 17.0451 4.382 17.0718C4.53798 17.9458 4.57698 18.3313 4.67627 18.6816C4.74729 18.907 4.82898 19.0006 4.92957 19.2479C5.07477 19.6027 5.22875 19.9681 5.33931 20.1665C5.40302 20.2808 5.45858 20.2842 5.50445 20.3624C5.72964 20.7319 5.55282 20.5345 5.80121 20.9185C5.82472 20.9531 6.06471 21.2138 6.28793 21.5174C6.40856 21.689 6.72257 22.1677 6.75604 22.2018C6.90835 22.3688 6.87813 22.159 7.29864 22.8165C7.30237 22.7849 7.30583 22.7533 7.30981 22.7219C8.03097 23.3608 8.09318 23.534 8.22863 23.6698C8.24729 23.6872 8.45989 23.8147 8.56761 23.9118C8.74887 24.0763 8.78713 24.1812 8.82835 24.218C8.97042 24.3464 9.50236 24.7249 9.82415 25.0207C9.85437 24.8473 11.1586 25.6485 11.3377 25.9685C11.594 26.0798 11.8638 26.1949 12.12 26.2961C12.2079 26.3829 12.2976 26.4694 12.3882 26.5562C12.4734 26.5668 12.5595 26.5777 12.6452 26.5877C12.9633 26.8408 13.2822 27.0853 13.6099 27.3284C13.6718 27.2799 13.7333 27.2309 13.795 27.1821C13.8931 27.2396 13.9932 27.2972 14.0929 27.3543C14.1439 27.4419 14.1956 27.5298 14.2482 27.6177C14.382 27.6692 14.5171 27.7203 14.6529 27.7708C14.7064 27.75 14.7609 27.7289 14.8143 27.7078C15.5434 27.9783 14.9878 28.1864 16.5253 28.4407C16.7243 28.5562 16.9344 28.674 17.1313 28.7851C17.4461 28.7335 17.8628 28.993 18.2512 29.1116C18.526 29.1952 18.5345 29.1304 18.8957 29.2523C19.2556 29.3726 19.2226 29.4253 19.2495 29.4358C19.5458 29.5382 19.7965 29.5609 20.0131 29.6407C20.0454 29.6524 20.0988 29.7482 20.3769 29.8388C20.6558 29.9291 20.8553 29.9065 21.2747 30.0437C21.4895 30.1137 21.5312 30.191 21.7192 30.2497C22.6263 30.5344 23.6667 30.4553 24.2496 30.9905C24.4297 30.9848 25.6196 31.0733 26.1146 31.1807C26.8856 31.352 26.5659 31.366 26.8683 31.4396C26.9136 31.4498 27.1524 31.4717 27.8008 31.5927C27.9173 31.6144 27.9019 31.5668 27.9187 31.5691C28.6769 31.7072 30.1561 31.9726 30.9906 32.0869C31.0658 32.0976 31.4815 32.0262 32.1242 32.2749C33.1277 32.2695 34.9728 32.7267 36.316 32.616C36.4981 32.624 36.7154 32.6847 36.7965 32.6881C37.4938 32.7127 37.2588 32.563 38.813 32.8389C38.6911 32.7602 39.0634 32.7095 39.5865 32.7297C40.3736 32.7584 39.8064 32.883 40.437 32.8851C40.439 32.8459 40.4413 32.8061 40.4433 32.7669C41.89 32.8945 42.1838 32.7253 43.6393 32.7027C43.756 32.7005 43.886 32.7033 44.018 32.7072C44.4788 32.7211 44.968 32.7586 45.0659 32.7556C45.1146 32.7543 45.6835 32.6355 45.7377 32.6318C46.0425 32.6159 46.2189 32.6525 46.4851 32.6397C47.3663 32.5986 48.3914 32.3948 48.2197 32.6442C48.4586 32.5777 48.6961 32.5093 48.9324 32.4404C49.8572 32.6237 50.5031 32.2057 50.7167 32.4348C50.8739 32.3676 51.0303 32.2994 51.186 32.231C55.0463 31.8499 58.8764 31.2065 62.5608 30.2587C62.679 30.143 64.2833 29.721 64.3624 29.706C64.7499 29.654 64.4225 29.9572 65.1695 29.6812C65.2252 29.5751 65.2804 29.469 65.3346 29.3626C66.2624 29.0339 65.838 29.2594 66.2286 29.1915C66.3804 29.1293 66.3069 29.0839 66.5142 29.008C67.6332 28.611 69.8856 27.7214 71.0139 27.1753C71.2435 27.0674 71.2394 27.141 71.3107 27.1078C71.5049 27.0158 71.8485 26.7606 72.2332 26.5652C74.6196 25.3996 77.6427 23.3854 79.1132 21.7628C79.2147 21.6561 79.2955 21.6932 79.3653 21.6187C79.4628 21.5147 79.5988 21.2381 79.6881 21.1324C79.7728 21.033 79.8793 20.9996 79.9687 20.8892C80.3819 20.3867 80.6769 19.6387 81.0775 19.1578C81.1215 19.1179 81.6667 18.635 81.6896 18.6197C81.8486 18.5658 81.9188 19.2099 82.3639 18.3045C82.3103 19.1961 82.7512 19.0593 83.12 17.8677C83.0781 18.4795 82.9514 19.0962 82.7388 19.7151C82.7741 19.7287 82.8091 19.7431 82.8444 19.7567C83.2471 19.2611 83.5115 18.699 83.6465 17.8092C83.6786 17.841 83.7104 17.8735 83.7421 17.906C83.8213 18.7301 83.5256 19.7077 83.4503 20.3984C84.0364 19.5725 84.4953 18.6682 84.7764 17.6899C84.7996 17.7418 84.8225 17.7946 84.8447 17.8475C84.8786 18.3361 84.6568 19.39 84.5628 19.7961C84.2376 21.3799 85.2097 18.5222 85.1712 19.0149C84.7381 20.6795 83.8152 22.2298 82.6333 23.5899C82.6546 23.6418 83.9118 22.4127 84.7689 20.923C85.6742 19.4521 86.0161 17.7325 86.1832 17.7822C86.1463 18.3576 86.0545 18.9316 85.9112 19.4955C86.0719 19.267 86.2244 19.0318 86.3682 18.7875C86.3808 18.8637 86.3921 18.9406 86.4029 19.0171C86.2374 20.0159 85.9148 20.9924 85.468 21.9238C86.726 19.4607 86.8052 18.0013 87.3218 17.1574H87.5986C87.2477 17.9719 86.6417 21.1137 85.6716 22.5823C85.9919 22.3494 86.6128 20.9027 86.7804 20.6066C86.8361 20.5258 86.7989 20.8593 86.9232 20.6686C87.3221 20.2017 87.9634 17.7556 88.0171 18.1176C88.0508 18.2389 87.9622 19.3361 87.6011 20.4457C87.2609 21.5562 86.6595 22.6425 86.4452 22.9684C87.5848 21.4565 88.3571 19.5675 88.7161 17.6088C88.8782 18.849 89.0585 20.1244 88.0469 22.239C87.9462 22.5808 88.5493 21.6913 89.0079 20.5785C89.4874 19.4703 89.7312 18.1478 89.774 18.0917C89.7547 18.9958 89.6331 19.8975 89.4177 20.7789C89.6486 20.046 89.8151 19.2944 89.9106 18.5274C89.9402 18.5285 89.9704 18.5297 90 18.5308C89.8198 20.5243 89.3414 22.3857 88.0879 24.2495C88.2669 24.2665 88.9765 23.1086 89.2587 22.4979C87.4449 27.646 83.6964 29.2404 80.0097 31.3687C71.5982 36.0539 59.6843 38.5361 50.4125 38.9033C48.2868 39.0011 46.157 39.0239 44.018 38.9753C39.1061 38.8627 34.2133 38.376 29.4534 37.4916C29.1067 37.427 28.9074 37.3278 28.7481 37.2968C27.2589 37.0161 24.7533 36.5032 23.311 36.0991C20.2252 35.3138 15.039 33.4361 12.4714 32.0171C11.382 31.4505 10.2841 30.8078 9.93963 30.4524C9.55576 30.2152 9.28384 30.1765 9.18098 30.1191L9.1785 30.1169C8.83968 29.9304 8.08496 29.3297 7.91574 29.2129C7.88976 29.1959 7.99857 29.3732 7.58918 29.0519C7.55359 29.023 7.62109 29.0061 7.27132 28.748C7.17891 28.6905 5.96717 27.8501 5.65966 27.575C4.5557 26.7238 2.32513 24.1789 1.57215 22.6476C1.44941 22.4252 1.34763 22.2997 1.22573 22.0543C1.16223 21.9268 1.10441 21.7211 1.08666 21.6817C1.0012 21.5166 0.549425 20.7792 0.945114 20.9646C0.627836 20.1598 0.630266 20.4223 0.557719 20.4232C0.258568 19.5124 0.336171 19.0344 0.143007 18.8133C0.0351649 18.1581 -0.0122837 17.4973 0.00270086 16.8332C0.0735369 12.7256 2.64051 9.22358 5.57026 6.80171C5.55657 6.787 5.54297 6.7714 5.52929 6.75668C6.60527 5.96982 6.89999 5.61632 7.58546 5.27521C7.95237 4.99349 8.32752 4.71987 8.70294 4.45905C11.9457 2.57485 15.3526 1.11707 18.8559 0V0.773382ZM80.9819 26.6158C76.1066 29.9697 69.7323 32.5405 63.5615 34.0131C62.8915 34.172 62.8004 34.1017 62.5583 34.1662C62.3995 34.2078 62.4449 34.2689 62.2317 34.3159C56.1314 35.6482 50.044 36.2453 44.018 36.242C42.4535 36.2399 40.9012 36.195 39.3506 36.1069C38.8692 36.0868 36.5714 35.8011 36.0602 35.937C35.6725 36.0478 37.3448 36.08 37.6259 36.0968C37.832 36.1126 37.8359 36.1803 37.9736 36.1902C38.1204 36.2004 38.0037 36.146 38.1735 36.1565C38.8955 36.201 39.6977 36.2618 40.3489 36.2848C41.5778 36.3289 42.7935 36.3502 44.018 36.349C49.1986 36.3402 54.3075 35.9506 59.4182 35.0589C60.1789 34.9237 60.0372 35.0107 60.075 35.0048L60.0762 35.0037C64.1779 34.2594 68.723 32.888 72.7671 31.237C75.6201 30.0817 78.371 28.67 80.8143 26.8196C80.8709 26.7518 80.9267 26.6838 80.9819 26.6158ZM24.6855 35.991C25.0296 36.0534 25.3767 36.1128 25.716 36.1689C25.4695 36.0972 25.2226 36.0244 24.9723 35.9493C24.8767 35.9632 24.781 35.9776 24.6855 35.991ZM31.1855 35.284C31.3732 35.592 34.4751 35.8124 35.8665 35.9741C36.1385 35.8647 34.1031 35.7264 33.6365 35.6499C33.3985 35.6158 32.1485 35.3235 31.1768 35.2548C31.1796 35.2643 31.1827 35.2745 31.1855 35.284ZM47.7193 35.7805C48.0541 35.7583 48.3882 35.7346 48.7263 35.7084C48.5479 35.6518 48.1866 35.7327 48.0546 35.7276C48.0268 35.7256 48.2641 35.6609 47.9677 35.6578C47.8853 35.699 47.8021 35.7396 47.7193 35.7805ZM33.418 35.1793C33.0993 35.2666 35.4915 35.4728 35.9385 35.5081C36.1386 35.5283 36.3756 35.598 36.4985 35.6094C36.633 35.6215 36.8232 35.5694 37.1516 35.5959C37.2501 35.6051 38.3046 35.7576 38.767 35.7703C38.7145 35.7399 38.6617 35.7096 38.6093 35.6792C38.0475 35.6428 37.4882 35.6014 36.9232 35.5542C36.9813 35.5433 37.0401 35.5326 37.0982 35.5216C36.2507 35.4165 35.8956 35.4779 35.4444 35.4225C35.3956 35.4162 35.3436 35.3552 35.1625 35.3358C34.7441 35.2932 33.5715 35.1436 33.418 35.1793ZM23.5667 35.7051C23.7206 35.7169 23.8754 35.728 24.0299 35.7388C23.8321 35.6815 23.6352 35.6231 23.4389 35.5643C23.2983 35.5451 23.1578 35.5259 23.0179 35.5058C23.1998 35.5727 23.3882 35.6406 23.5667 35.7051ZM30.2307 34.7955C30.5092 34.8211 30.7906 34.8458 31.0713 34.8686C30.853 34.8176 30.6357 34.7657 30.4194 34.7133C30.3567 34.7408 30.2935 34.7681 30.2307 34.7955ZM23.907 33.8915C22.7686 33.7683 25.2615 34.2956 25.3907 34.3148C25.5199 34.3501 27.0251 34.7662 27.1365 34.7392C27.4547 34.6567 26.4219 34.5051 26.101 34.3778C25.5803 34.1728 26.4021 34.286 25.053 34.0333C25.115 34.0185 25.1773 34.0044 25.2392 33.9894C24.4653 33.8005 24.6655 34.0474 24.5191 34.039C24.4706 34.0354 23.9982 33.902 23.907 33.8915ZM25.7434 33.7519C25.0844 33.6604 25.4508 33.8401 25.2715 33.8859C26.2356 34.0049 28.5924 34.6679 29.4013 34.6592C29.4525 34.6585 29.007 34.5271 29.77 34.5422C29.2062 34.4729 28.8055 34.4248 28.7457 34.5016C28.5861 34.4436 28.427 34.3847 28.2689 34.326C27.9908 34.2972 27.7158 34.2679 27.4332 34.2348C27.483 34.1579 27.4592 34.1593 27.0247 34.1313C26.8381 34.0718 26.652 34.0117 26.4672 33.9512C26.3779 33.9689 26.2884 33.9867 26.199 34.0041C26.0471 33.9206 25.8978 33.8368 25.7434 33.7519ZM67.6975 33.3365C66.9254 33.5713 66.1145 33.8002 65.3321 34.0052C65.2578 34.0253 64.9326 34.1788 65.1956 34.1279C66.0279 33.8834 66.8812 33.6146 67.6975 33.3365ZM31.8771 33.1553C30.6041 33.1113 33.0034 33.5778 33.3075 33.5853C33.3473 33.587 33.3527 33.5104 33.6005 33.5245C34.0351 33.5578 36.4732 33.8498 37.2386 33.8352C37.2402 33.8883 37.2418 33.942 37.2435 33.9951C37.578 33.9623 37.9124 33.928 38.2418 33.8904C38.2895 33.9816 39.3066 33.8917 39.0563 34.0919C39.3917 34.0324 39.7329 33.9706 40.0633 33.9061C40.0619 33.8864 40.0598 33.8662 40.0583 33.8465C39.7331 33.8524 39.3984 33.8569 39.07 33.8588C39.0708 33.8276 39.0716 33.7955 39.0725 33.7643C38.5773 33.8642 36.5472 33.6926 36.6165 33.5842C36.5036 33.6224 36.3905 33.6602 36.2775 33.6979C35.3222 33.5022 34.4664 33.558 33.4292 33.3264C33.3418 33.3544 33.2546 33.3831 33.1672 33.4108C33.1184 33.3752 33.0692 33.3395 33.0207 33.3039C32.6371 33.2568 32.2561 33.2072 31.8771 33.1553ZM22.2792 33.35C22.5892 33.6255 22.7216 33.4786 24.0448 33.8904C24.1618 33.8865 24.2789 33.8825 24.3962 33.878C23.6931 33.7148 22.9714 33.5343 22.2779 33.3489L22.2792 33.35ZM17.3721 31.4565C17.9687 31.6833 18.5985 31.9077 19.2371 32.1185C19.9087 32.3374 20.4795 32.6384 21.816 32.8727C22.132 32.9784 21.9913 33.0261 22.0283 33.0416C22.1733 33.1364 26.4907 34.1194 24.5799 33.4907C24.0772 33.3766 23.5569 33.251 23.0527 33.1237C23.3851 33.4942 22.0924 32.8965 21.9774 32.8547C21.4414 32.6772 20.7517 32.5381 20.3583 32.4111C20.0241 32.3036 19.8445 32.1952 19.6121 32.1207C18.8263 31.8732 17.579 31.4224 17.3721 31.4565ZM30.0668 33.0933C30.6409 33.1654 30.9874 33.1655 30.8664 33.2554C31.0186 33.2652 31.1717 33.2747 31.3246 33.2836C31.2389 33.0655 31.0793 33.0279 29.9501 33.001C29.9891 33.032 30.028 33.0624 30.0668 33.0933ZM70.2069 31.4982C69.1232 32.0345 67.4178 32.4368 66.3155 32.7432C66.0086 32.8296 66.1153 32.8594 66.1007 32.8659L66.0982 32.8671C65.9176 32.92 65.0844 32.9986 64.9025 33.2251C65.158 33.2997 70.1241 31.7122 70.2354 31.5646C70.2693 31.5397 70.2006 31.524 70.2069 31.4982ZM26.6907 32.4348C27.4271 32.4772 27.6934 32.6352 27.8604 32.6734H27.8579C28.394 32.7938 28.8966 32.896 29.405 33.0123C29.2302 32.9194 29.0571 32.8254 28.8847 32.732C28.1718 32.6192 27.4427 32.4928 26.733 32.3582C26.7189 32.3837 26.7048 32.4093 26.6907 32.4348ZM60.9913 31.8021C60.2864 32.1185 59.0252 32.2715 59.3139 32.437L59.3151 32.4359C60.6872 31.9969 59.8554 32.3057 61.3675 31.9676C61.2419 31.9126 61.1165 31.8573 60.9913 31.8021ZM24.9052 31.8798C23.8299 31.7545 24.7183 31.9434 24.6855 32.0475C24.9315 32.0716 25.1786 32.0947 25.4267 32.1162C25.9734 32.3382 25.4315 32.2737 25.4131 32.2806C25.4041 32.3121 25.3845 32.3151 25.603 32.383C25.8058 32.3373 26.0086 32.2902 26.2115 32.2423C25.437 32.0515 25.5761 32.1312 24.9052 31.8798ZM75.6167 30.3218C75.6788 30.1967 74.9778 30.5465 74.7352 30.6527C73.6818 31.1276 72.3591 31.7256 71.2325 32.1365C71.3285 32.1291 71.4247 32.1217 71.5205 32.1139C72.9026 31.586 74.2944 30.9831 75.6167 30.3218ZM10.7666 30.6404C11.6806 31.2576 11.7102 31.1566 11.9139 31.2674C12.0203 31.3236 12.0664 31.3839 12.0951 31.4171C12.1021 31.4239 12.1092 31.4306 12.1162 31.4374C12.3587 31.5684 13.2784 31.9309 13.2573 31.8854C12.9066 31.6767 12.5628 31.4651 12.2267 31.2516C12.198 31.2957 12.1698 31.3404 12.1411 31.3845C12.1043 31.3362 12.0672 31.2876 12.0306 31.2392C11.8134 31.1483 11.5981 31.056 11.3849 30.9623C11.3072 30.8683 11.2299 30.7736 11.154 30.6798C11.0246 30.6673 10.8955 30.6541 10.7666 30.6404ZM21.3429 31.0603C21.8411 31.244 22.3505 31.4249 22.8652 31.5995C23.1474 31.5987 23.2989 31.5444 22.6218 31.3192C22.5128 31.4551 21.8923 31.1543 21.5938 31.0794C21.51 31.0734 21.4264 31.0666 21.3429 31.0603ZM64.8653 30.7709C64.6831 30.7916 63.8945 31.2593 64.1811 31.2269C64.4756 31.1152 64.7649 31.0026 65.0552 30.8869C64.9913 30.8484 64.9277 30.8099 64.8653 30.7709ZM11.9846 29.402C13.3337 30.0969 14.4102 30.6789 15.7729 31.1379C15.7231 31.0054 11.6429 29.2323 11.9846 29.402ZM21.3218 31.1087C21.297 31.0923 20.0194 30.6269 20.2255 30.8103C20.3263 30.9071 21.3714 31.157 21.3218 31.1087ZM74.8097 29.0137C74.6171 29.0337 73.38 29.7087 72.9993 29.8715C72.49 30.1075 71.0127 30.5451 71.0127 30.8801C71.4541 30.7641 75.2335 29.0164 74.8097 29.0137ZM12.639 27.5491C11.916 27.6631 15.4458 28.9108 14.5921 28.8594C14.7403 28.922 14.8911 28.9849 15.0416 29.0463C15.1082 28.9804 15.1747 28.9137 15.2402 28.8471C15.5412 29.2086 16.1812 29.2637 16.9338 29.7173C17.02 29.7219 17.1069 29.7266 17.1933 29.7308C17.472 29.9301 20.568 30.985 19.9486 30.6268C19.6829 30.4803 19.0012 30.3403 18.949 30.3195C18.7654 30.2498 18.5546 30.096 18.245 29.9908C18.0688 29.9315 17.6422 29.8732 17.2803 29.7353C16.4732 29.4324 15.1171 28.6157 13.9986 28.3213C13.9397 28.2643 13.8819 28.2076 13.821 28.1491C13.06 27.7914 13.2615 27.9852 12.639 27.5491ZM69.6953 29.2095C68.8304 29.4846 67.8686 29.7461 68.1283 29.9525C67.9318 30.0226 67.7333 30.0923 67.5336 30.1608C67.658 29.9948 67.6229 29.9687 67.0729 30.0775C67.0155 30.2664 66.441 30.3726 65.8288 30.5987C66.2877 30.4663 66.7421 30.3291 67.2008 30.1844C67.2111 30.2107 67.2216 30.237 67.2319 30.2632C66.2095 30.5905 67.5501 30.3445 68.1482 30.0077C68.2126 30.0249 68.2795 30.0407 68.3456 30.0572C68.4564 29.9772 68.5671 29.8969 68.6759 29.8163C68.8609 29.7786 69.0453 29.7404 69.2284 29.7015C69.3874 29.5382 69.539 29.3755 69.6953 29.2095ZM78.4626 28.8077C78.0374 28.9504 77.2054 29.4571 76.6523 29.7499C77.0809 29.6233 77.9349 29.0857 78.4626 28.8077ZM77.581 27.6504C77.5482 27.5123 75.3452 28.7661 75.1176 28.8876C75.1768 28.8813 75.276 28.8834 75.3448 28.8594C75.6839 28.7503 77.0951 27.9203 77.581 27.6504ZM80.5709 27.6504C80.0635 27.998 79.518 28.346 78.9903 28.6591C79.0158 28.6914 79.0418 28.7235 79.0673 28.7559L79.0685 28.7547C79.5726 28.4085 80.0921 28.0287 80.5709 27.6504ZM73.3433 27.5029C72.6798 27.8974 73.0974 27.851 72.2183 28.3168L72.2171 28.318C72.6851 28.1109 73.1654 27.8863 73.6189 27.6639C73.5269 27.6103 73.4347 27.5568 73.3433 27.5029ZM13.4746 27.3915C13.9305 27.7563 14.4618 27.8977 15.2849 28.2842C15.2967 28.2609 15.3092 28.2377 15.3209 28.2144C14.943 28.1197 14.0863 27.6823 13.4746 27.3915ZM9.6168 26.8826C10.0941 27.2108 10.6341 27.5926 10.9876 27.7056C10.6517 27.4907 10.315 27.2653 9.99426 27.0414C9.86842 26.9896 9.74558 26.9389 9.6168 26.8826ZM11.0869 26.7791C9.6182 25.4911 8.7754 25.5954 11.7462 27.1888C11.7763 27.2799 11.8078 27.3719 11.8394 27.4635C11.9323 27.3295 12.4398 27.5961 11.8245 27.0785C11.6875 27.0038 11.5546 26.9292 11.4184 26.8522C11.3077 26.8281 11.1968 26.8042 11.0869 26.7791ZM75.5186 26.3974C75.4667 26.4994 75.4131 26.6015 75.3585 26.7036C75.5936 26.5117 75.8221 26.3203 76.0426 26.1261C75.8699 26.2178 75.6954 26.3077 75.5186 26.3974ZM9.39454 25.5959C9.09162 25.3719 8.79386 25.2577 8.89043 25.3663C9.07372 25.5737 9.79108 25.8874 9.39454 25.5959ZM8.28575 24.6987C7.57761 24.1728 7.23235 23.7741 7.27877 24.0188L7.28001 24.0199C7.60966 24.3186 7.94986 24.6047 8.30934 24.8878C8.30245 24.826 8.29346 24.7616 8.28575 24.6987ZM0.535369 18.9473C0.714769 19.7064 0.816636 20.2447 0.931455 20.6066C1.02609 20.8946 1.05465 20.8528 1.06183 20.8746V20.878C1.31038 21.549 1.37177 21.7501 1.61436 22.2356C2.24747 23.4412 2.83401 23.9973 3.35143 24.8147C3.05622 24.2869 0.703962 20.8925 0.735275 19.3627C0.665882 19.2263 0.599158 19.0881 0.535369 18.9473ZM2.61762 22.9212C2.26742 22.457 2.65023 23.1042 2.64121 23.2105C2.63408 23.2498 2.30554 22.8086 2.59651 23.43C2.74663 23.6666 2.71212 23.5369 2.72564 23.555C2.82943 23.7079 2.90196 23.87 2.9479 23.9265C3.81622 24.9447 3.31192 24.2202 3.31046 24.2079C3.33104 24.1618 3.58707 24.4076 3.33529 23.9985C3.1456 23.775 2.96278 23.5483 2.78896 23.3186C2.73206 23.1903 2.67249 23.0537 2.61762 22.9212ZM1.28905 21.8945C1.6445 22.6216 2.06458 23.3085 2.52573 23.9512C2.56364 23.9717 2.60191 23.9918 2.63997 24.012C2.10111 23.3439 1.38167 21.8321 1.28905 21.8945ZM1.26298 20.7688C1.50287 21.3709 1.78806 21.9421 2.11351 22.4945C1.83233 21.9208 1.59377 21.3342 1.40204 20.7237C1.35576 20.7389 1.30925 20.7536 1.26298 20.7688ZM3.73634 15.2504C3.6681 15.9496 3.67587 15.4675 3.60225 15.6692C3.55969 15.786 3.47692 16.1516 3.43462 16.2872C3.49861 16.1183 3.49951 16.4076 3.52154 16.8332C3.54169 17.3531 3.64308 18.0634 3.71151 18.4047C3.73773 18.556 3.74515 18.8342 3.78601 18.9406C3.82862 19.0003 3.87228 19.0598 3.91638 19.1184C3.84221 19.2222 4.3942 20.3655 4.70607 20.7766C4.70127 20.8305 4.69747 20.8853 4.69366 20.9399C4.79763 21.0958 4.90409 21.2456 5.01649 21.3969C4.97652 21.3912 4.93599 21.386 4.89604 21.38C5.00494 21.4828 5.11634 21.5841 5.23005 21.684C5.58834 22.1175 5.24169 21.9218 5.54046 22.2333C5.88001 22.5757 5.49127 21.9138 5.56157 21.8934C5.31784 21.6046 4.8309 20.9121 4.66013 20.5785C4.56563 20.3867 4.75779 20.5731 4.2628 19.7882C4.21499 19.5952 4.17516 19.4047 4.14112 19.2119C3.97704 18.8847 3.83489 18.5518 3.71648 18.2066C3.745 18.1349 3.77434 18.0639 3.80463 17.9938C3.79327 17.9564 3.60881 17.1612 3.58859 17.1957C3.60487 17.1002 3.61539 16.9771 3.62584 16.8332C3.65134 16.4687 3.68031 15.9771 3.76614 15.4665C3.7553 15.3949 3.74503 15.3228 3.73634 15.2504ZM4.12374 8.52522C2.99835 9.53683 2.15472 11.0236 2.91189 10.2026C2.58498 10.5471 1.58637 12.3689 1.5647 12.5013C1.47734 12.6756 1.44701 12.5932 1.34865 12.8165C1.29866 12.955 1.24569 13.3221 0.827157 14.3914C0.813417 14.5362 0.802435 14.6817 0.794874 14.8271C0.747418 14.9568 0.70335 15.0881 0.660776 15.22C0.64118 14.9348 0.634525 14.6453 0.639668 14.3577C0.452667 15.3313 0.273533 16.1694 0.319322 16.8332C0.325515 16.9215 0.336758 17.0068 0.351605 17.0876C0.345784 17.6823 0.369883 17.971 0.285797 17.7203C0.298049 17.8992 0.315185 18.0786 0.336705 18.2572C0.383656 18.3702 0.432464 18.4821 0.48322 18.5927C0.426958 18.1148 0.403777 17.6363 0.413687 17.1574C0.458691 17.1643 0.503989 17.1709 0.549027 17.1776C0.5418 17.4313 0.543758 17.6854 0.555235 17.9386C0.584129 18.0253 0.614681 18.1119 0.645876 18.1976C0.659716 17.8798 0.687996 17.5668 0.730308 17.2553C0.719483 17.1153 0.711592 16.9742 0.706717 16.8332C0.698628 16.5992 0.699631 16.365 0.707958 16.1318C0.670225 16.3016 0.636639 16.4734 0.607385 16.6463C0.632901 15.7257 0.728826 15.9314 0.884273 15.1918C0.889181 14.9326 0.904969 14.6705 0.930214 14.4117C1.06392 14.0565 1.21726 13.7038 1.38466 13.3681C1.59094 12.7806 1.59494 12.72 1.38838 13.098C1.45537 12.791 1.67251 12.4988 1.82048 12.1591C1.83287 12.1308 1.7627 12.1647 1.77454 12.14C2.67782 10.4088 2.82487 10.6041 2.98515 10.3478C3.10592 10.174 3.58446 9.44269 3.57493 9.41906C3.56653 9.39138 2.22634 10.6927 4.12374 8.52522ZM0.0858914 17.6032C0.0803776 17.7915 0.151219 18.5586 0.19019 18.4599C0.178347 18.1258 0.18097 17.7933 0.200123 17.4625C0.172824 17.3102 0.149768 17.1563 0.129349 17.002C0.120412 17.2179 0.0842321 17.5519 0.0858914 17.6032ZM0.930214 13.4188C0.859021 13.6763 0.796905 13.9371 0.745208 14.1978C0.80408 14.0608 0.864908 13.9248 0.928972 13.7903C0.986452 13.5354 1.05286 13.2861 1.12764 13.0372C1.0596 13.1631 0.993702 13.2906 0.930214 13.4188ZM4.83645 12.0814C4.65132 12.4668 4.49093 12.8607 4.36089 13.2533C4.29799 13.3508 4.2374 13.4471 4.17713 13.5483C4.2222 14.0314 4.34385 13.1242 4.82527 12.6252C4.59765 12.7563 5.10204 11.8975 5.13941 11.845C5.03744 11.9227 4.93604 12.0016 4.83645 12.0814ZM10.5071 3.84552C10.7083 3.73236 10.9188 3.61633 11.1167 3.51005C11.1495 3.46384 11.1827 3.41771 11.216 3.37159C10.9821 3.52414 10.7423 3.68403 10.5071 3.84552ZM14.5834 3.38172C14.7899 3.32485 14.9978 3.26924 15.2067 3.21398C15.1354 3.19781 15.0633 3.18165 14.9919 3.16558C14.8546 3.23718 14.7184 3.30922 14.5834 3.38172Z" fill="#FFF200"/>
<path d="M31.2799 35.687C31.2715 35.7121 31.2634 35.7375 31.255 35.7625C30.7169 35.6938 30.3098 35.6087 30.4331 35.5463C30.7138 35.5945 30.9964 35.6415 31.2799 35.687Z" fill="#FFF200"/>
<path d="M11.9461 29.7668C12.2959 29.9358 12.6636 30.1079 13.0127 30.2632C13.0031 30.2803 12.9925 30.2969 12.9829 30.3139C12.6432 30.141 12.2855 29.9524 11.9461 29.7668Z" fill="#FFF200"/>
<path d="M2.38294 17.2767C2.53769 20.4914 4.57847 23.3855 7.15088 25.5757C6.90273 25.3973 6.66134 25.216 6.427 25.0319C4.28245 23.0446 2.59097 20.3532 2.32459 17.6741C2.34084 17.5409 2.36091 17.4085 2.38294 17.2767Z" fill="#FFF200"/>
<path d="M18.8559 1.09985C18.1234 1.34288 17.4433 1.58376 16.7166 1.85972C16.5572 1.92038 16.4738 1.91377 16.3528 1.95991C15.9483 2.1069 14.6255 2.77053 14.5474 2.67588C13.8192 3.11501 13.2443 3.28234 12.6315 3.5866C11.1575 4.30233 8.96523 5.63504 7.67362 6.61371C7.39578 6.81883 7.2448 6.89157 7.09501 7.00772C6.81738 7.19364 5.38362 8.51083 5.32193 8.59614C5.17549 8.7343 5.11803 8.52546 4.53969 9.3774C4.15465 9.83398 4.15069 9.74477 4.06786 9.83671C3.41761 10.5758 3.07347 11.4466 3.03481 11.2326C2.46885 12.2011 2.2722 12.8968 1.96699 13.2781C2.03594 13.2951 1.87677 13.7899 1.68762 14.3937C1.76511 13.7525 1.60148 13.7761 2.29106 12.3437C2.30253 12.3224 2.32689 12.3824 2.33825 12.3606C2.43915 12.1616 2.6435 11.7279 2.84608 11.406C3.05184 11.0802 2.96876 11.2763 3.05095 11.1459C3.12769 11.0269 3.08435 11.0092 3.19995 10.8375C3.56868 10.293 3.93946 9.81548 4.17961 9.53388C4.33346 9.35271 4.54505 9.17593 4.67255 9.03856C5.14378 8.50837 6.24462 7.44503 6.97208 6.89065C7.12253 6.77372 7.08666 6.85212 7.42156 6.60021C7.45951 6.57225 7.57924 6.42507 7.86359 6.20845C8.15193 5.98943 8.40193 5.84404 8.59616 5.7075C8.75835 5.59448 8.66873 5.60749 9.00094 5.38779C9.25649 5.15267 12.6096 3.32749 12.8265 3.2804C13.0972 3.15835 13.2505 3.13994 13.4125 3.05751C13.441 3.04282 13.4666 2.9789 13.5665 2.92917C14.7018 2.33241 16.925 1.50113 18.8559 0.866819V1.09985Z" fill="#FFF200"/>
</svg>
